<svg width="24" height="24" viewBox="0 0 24 24" fill="none" xmlns="http://www.w3.org/2000/svg">
<mask id="mask0_74_1619" style="mask-type:alpha" maskUnits="userSpaceOnUse" x="0" y="0" width="24" height="24">
<rect width="24" height="24" fill="#D9D9D9"/>
</mask>
<g mask="url(#mask0_74_1619)">
<path d="M20.0252 9.3751L18.981 8.33085L19.5962 7.6906C19.6604 7.62643 19.6925 7.55426 19.6925 7.4741C19.6925 7.39393 19.6604 7.32185 19.5962 7.25785L16.7425 4.4041C16.6785 4.33993 16.6064 4.30785 16.5262 4.30785C16.4461 4.30785 16.3739 4.33993 16.3097 4.4041L15.6695 5.01935L14.6002 3.9501L15.254 3.27135C15.5925 2.93285 16.0098 2.76776 16.506 2.7761C17.0022 2.78443 17.4195 2.95785 17.758 3.29635L20.704 6.24235C21.0425 6.58085 21.2117 6.99401 21.2117 7.48185C21.2117 7.96968 21.0425 8.38285 20.704 8.72135L20.0252 9.3751ZM8.74649 20.6788C8.40799 21.0173 7.99483 21.1866 7.50699 21.1866C7.01916 21.1866 6.60599 21.0173 6.26749 20.6788L3.35999 17.7711C3.01499 17.4263 2.84249 17.0003 2.84249 16.4933C2.84249 15.9863 3.01499 15.5603 3.35999 15.2153L3.97524 14.6001L5.04449 15.6693L4.41374 16.2846C4.34958 16.3488 4.31749 16.4209 4.31749 16.5011C4.31749 16.5813 4.34958 16.6533 4.41374 16.7173L7.28299 19.5866C7.34699 19.6508 7.41908 19.6828 7.49924 19.6828C7.57941 19.6828 7.65158 19.6508 7.71574 19.5866L8.33099 18.9558L9.40024 20.0251L8.74649 20.6788ZM18.5752 13.0771L19.856 11.7963C19.9202 11.7322 19.9522 11.6584 19.9522 11.5751C19.9522 11.4918 19.9202 11.418 19.856 11.3538L12.6465 4.14435C12.5823 4.08018 12.5086 4.0481 12.4252 4.0481C12.3419 4.0481 12.2682 4.08018 12.204 4.14435L10.9232 5.4251C10.8592 5.48926 10.8272 5.56135 10.8272 5.64135C10.8272 5.72151 10.8592 5.79368 10.9232 5.85785L18.1425 13.0771C18.2067 13.1411 18.2788 13.1731 18.359 13.1731C18.439 13.1731 18.5111 13.1411 18.5752 13.0771ZM11.7965 19.8558L13.0772 18.5596C13.1412 18.4956 13.1732 18.4235 13.1732 18.3433C13.1732 18.2632 13.1412 18.1911 13.0772 18.1271L5.87324 10.9231C5.80924 10.8591 5.73716 10.8271 5.65699 10.8271C5.57683 10.8271 5.50474 10.8591 5.44074 10.9231L4.14449 12.2038C4.08033 12.268 4.04824 12.3418 4.04824 12.4251C4.04824 12.5084 4.08033 12.5822 4.14449 12.6463L11.354 19.8558C11.4182 19.92 11.4919 19.9521 11.5752 19.9521C11.6586 19.9521 11.7323 19.92 11.7965 19.8558ZM11.3675 14.2943L14.31 11.3673L12.633 9.69035L9.70599 12.6328L11.3675 14.2943ZM12.856 20.9096C12.5112 21.2546 12.0842 21.4271 11.5752 21.4271C11.0662 21.4271 10.6393 21.2546 10.2945 20.9096L3.09074 13.7058C2.74574 13.361 2.57324 12.9341 2.57324 12.4251C2.57324 11.9161 2.74574 11.4892 3.09074 11.1443L4.37149 9.85385C4.71633 9.50901 5.14224 9.3366 5.64924 9.3366C6.15641 9.3366 6.58241 9.50901 6.92724 9.85385L8.63674 11.5636L11.5792 8.62135L9.86949 6.9271C9.52466 6.58226 9.35224 6.15368 9.35224 5.64135C9.35224 5.12918 9.52466 4.70068 9.86949 4.35585L11.16 3.0656C11.5048 2.7206 11.9307 2.5481 12.4377 2.5481C12.9447 2.5481 13.3707 2.7206 13.7155 3.0656L20.9347 10.2848C21.2797 10.6297 21.4522 11.0556 21.4522 11.5626C21.4522 12.0696 21.2797 12.4955 20.9347 12.8403L19.6445 14.1308C19.2997 14.4757 18.8712 14.6481 18.359 14.6481C17.8467 14.6481 17.4181 14.4757 17.0732 14.1308L15.379 12.4211L12.4367 15.3636L14.1465 17.0731C14.4913 17.4179 14.6637 17.8439 14.6637 18.3511C14.6637 18.8581 14.4913 19.284 14.1465 19.6288L12.856 20.9096Z" fill="#5C5C5C"/>
</g>
</svg>
