<svg width="24" height="24" viewBox="0 0 24 24" fill="none" xmlns="http://www.w3.org/2000/svg">
<g clip-path="url(#clip0_57_2131)">
<path fill-rule="evenodd" clip-rule="evenodd" d="M5.16364 11.9999C5.16364 11.2377 5.29022 10.5071 5.51614 9.82174L1.56174 6.802C0.791043 8.3668 0.356827 10.13 0.356827 11.9999C0.356827 13.8681 0.790509 15.6303 1.56013 17.194L5.51241 14.1684C5.28862 13.4863 5.16364 12.7583 5.16364 11.9999Z" fill="#FBBC05"/>
<path fill-rule="evenodd" clip-rule="evenodd" d="M12.1068 5.0666C13.7625 5.0666 15.258 5.65327 16.433 6.61327L19.8512 3.19994C17.7682 1.3866 15.0977 0.266602 12.1068 0.266602C7.46344 0.266602 3.47272 2.92207 1.56174 6.80207L5.51615 9.8218C6.42731 7.05594 9.02459 5.0666 12.1068 5.0666Z" fill="#EB4335"/>
<path fill-rule="evenodd" clip-rule="evenodd" d="M12.1068 18.9332C9.02459 18.9332 6.42731 16.9438 5.51615 14.178L1.56174 17.1972C3.47271 21.0777 7.46344 23.7332 12.1068 23.7332C14.9728 23.7332 17.7089 22.7156 19.7625 20.8089L16.0089 17.907C14.9498 18.5742 13.6162 18.9332 12.1068 18.9332Z" fill="#34A853"/>
<path fill-rule="evenodd" clip-rule="evenodd" d="M23.3227 12C23.3227 11.3067 23.2159 10.56 23.0557 9.8667H12.1068V14.4H18.4091C18.094 15.9456 17.2362 17.1339 16.0089 17.9072L19.7625 20.8091C21.9197 18.807 23.3227 15.8246 23.3227 12Z" fill="#4285F4"/>
</g>
<defs>
<clipPath id="clip0_57_2131">
<rect width="24" height="24" fill="white"/>
</clipPath>
</defs>
</svg>
