<svg width="24" height="24" viewBox="0 0 24 24" fill="none" xmlns="http://www.w3.org/2000/svg">
<mask id="mask0_74_1627" style="mask-type:alpha" maskUnits="userSpaceOnUse" x="0" y="0" width="24" height="24">
<rect width="24" height="24" fill="#D9D9D9"/>
</mask>
<g mask="url(#mask0_74_1627)">
<path d="M2.25 20.7307V19.2115C2.82567 19.1795 3.27025 19.0113 3.58375 18.7068C3.89708 18.4023 4.482 18.25 5.3385 18.25C6.19483 18.25 6.80442 18.4167 7.16725 18.75C7.53008 19.0833 8.03075 19.25 8.66925 19.25C9.30775 19.25 9.80842 19.0833 10.1713 18.75C10.5341 18.4167 11.1437 18.25 12 18.25C12.8563 18.25 13.4692 18.4167 13.8385 18.75C14.2077 19.0833 14.7115 19.25 15.35 19.25C15.9885 19.25 16.4859 19.0833 16.8422 18.75C17.1987 18.4167 17.8052 18.25 18.6615 18.25C19.518 18.25 20.1029 18.4023 20.4163 18.7068C20.7297 19.0113 21.1743 19.1795 21.75 19.2115V20.7307C20.959 20.6922 20.3997 20.5192 20.072 20.2115C19.7445 19.9038 19.2743 19.75 18.6615 19.75C18.0487 19.75 17.5641 19.9167 17.2078 20.25C16.8513 20.5833 16.232 20.75 15.35 20.75C14.468 20.75 13.8423 20.5833 13.473 20.25C13.1038 19.9167 12.6128 19.75 12 19.75C11.3872 19.75 10.8993 19.9167 10.5365 20.25C10.1737 20.5833 9.55125 20.75 8.66925 20.75C7.78725 20.75 7.16483 20.5833 6.802 20.25C6.43917 19.9167 5.95133 19.75 5.3385 19.75C4.72567 19.75 4.2555 19.9038 3.928 20.2115C3.60033 20.5192 3.041 20.6922 2.25 20.7307ZM2.25 16.2308V14.7115C2.82567 14.6795 3.27025 14.5112 3.58375 14.2067C3.89708 13.9023 4.482 13.75 5.3385 13.75C6.19483 13.75 6.807 13.9167 7.175 14.25C7.543 14.5833 8.04108 14.75 8.66925 14.75C9.30775 14.75 9.80842 14.5833 10.1713 14.25C10.5341 13.9167 11.1437 13.75 12 13.75C12.8563 13.75 13.4659 13.9167 13.8288 14.25C14.1916 14.5833 14.6922 14.75 15.3307 14.75C15.9692 14.75 16.4699 14.5833 16.8328 14.25C17.1956 13.9167 17.8052 13.75 18.6615 13.75C19.518 13.75 20.1029 13.9023 20.4163 14.2067C20.7297 14.5112 21.1743 14.6795 21.75 14.7115V16.2308C20.959 16.1923 20.3997 16.0192 20.072 15.7115C19.7445 15.4038 19.2743 15.25 18.6615 15.25C18.0487 15.25 17.5717 15.4167 17.2308 15.75C16.8898 16.0833 16.2628 16.25 15.35 16.25C14.4577 16.25 13.8295 16.0833 13.4655 15.75C13.1013 15.4167 12.6128 15.25 12 15.25C11.3667 15.25 10.8814 15.4167 10.5442 15.75C10.2071 16.0833 9.58208 16.25 8.66925 16.25C7.75642 16.25 7.12625 16.0833 6.77875 15.75C6.43142 15.4167 5.95133 15.25 5.3385 15.25C4.72567 15.25 4.2555 15.4038 3.928 15.7115C3.60033 16.0192 3.041 16.1923 2.25 16.2308ZM7.34225 11.2845L10.6193 8.00775L9.35 6.7385C8.8065 6.19483 8.24242 5.806 7.65775 5.572C7.07308 5.33817 6.34358 5.21158 5.46925 5.19225V3.25C6.61675 3.26917 7.56675 3.4115 8.31925 3.677C9.07175 3.94233 9.81408 4.441 10.5463 5.173L16.6578 11.2845C16.4513 11.4295 16.2468 11.5433 16.0443 11.626C15.8416 11.7087 15.607 11.75 15.3405 11.75C14.8173 11.75 14.3599 11.5833 13.9682 11.25C13.5766 10.9167 12.9205 10.75 12 10.75C11.0795 10.75 10.4234 10.9167 10.0317 11.25C9.64008 11.5833 9.18267 11.75 8.6595 11.75C8.393 11.75 8.15842 11.7087 7.95575 11.626C7.75325 11.5433 7.54875 11.4295 7.34225 11.2845ZM16.5652 3.34625C17.2076 3.34625 17.7528 3.57283 18.201 4.026C18.649 4.47917 18.873 5.02175 18.873 5.65375C18.873 6.29608 18.649 6.84133 18.201 7.2895C17.7528 7.7375 17.2076 7.9615 16.5652 7.9615C15.9231 7.9615 15.3779 7.7375 14.9298 7.2895C14.4818 6.84133 14.2578 6.29608 14.2578 5.65375C14.2578 5.02175 14.4818 4.47917 14.9298 4.026C15.3779 3.57283 15.9231 3.34625 16.5652 3.34625Z" fill="#5C5C5C"/>
</g>
</svg>
