<svg width="24" height="24" viewBox="0 0 24 24" fill="none" xmlns="http://www.w3.org/2000/svg">
<mask id="mask0_74_1577" style="mask-type:alpha" maskUnits="userSpaceOnUse" x="0" y="0" width="24" height="24">
<rect width="24" height="24" fill="#D9D9D9"/>
</mask>
<g mask="url(#mask0_74_1577)">
<path d="M4.53064 18.5C3.8538 18.5 3.32847 18.2602 2.95464 17.7807C2.58097 17.3012 2.43964 16.7359 2.53064 16.0848L3.59989 8.527C3.73072 7.64883 4.11889 6.92475 4.76439 6.35475C5.40989 5.78492 6.17172 5.5 7.04989 5.5H16.9499C17.8281 5.5 18.5899 5.78492 19.2354 6.35475C19.8809 6.92475 20.2691 7.64883 20.3999 8.527L21.4691 16.0848C21.5601 16.7359 21.4188 17.3012 21.0451 17.7807C20.6713 18.2602 20.146 18.5 19.4691 18.5C19.1833 18.5 18.9208 18.4519 18.6816 18.3558C18.4425 18.2596 18.2204 18.1089 18.0154 17.9038L15.6114 15.5H8.38839L5.98439 17.9038C5.77939 18.1089 5.5573 18.2596 5.31814 18.3558C5.07897 18.4519 4.81647 18.5 4.53064 18.5ZM4.93064 16.85L7.78064 14H16.2191L19.0691 16.85C19.1025 16.8833 19.2294 16.9333 19.4499 17C19.6332 17 19.7791 16.9458 19.8874 16.8375C19.9957 16.7292 20.0332 16.5833 19.9999 16.4L18.8999 8.7C18.8332 8.21667 18.615 7.8125 18.2451 7.4875C17.8753 7.1625 17.4436 7 16.9499 7H7.04989C6.55622 7 6.12447 7.1625 5.75464 7.4875C5.38481 7.8125 5.16655 8.21667 5.09989 8.7L3.99989 16.4C3.96655 16.5833 4.00405 16.7292 4.11239 16.8375C4.22072 16.9458 4.36655 17 4.54989 17C4.59606 17 4.72297 16.95 4.93064 16.85ZM16.9999 12.9037C17.2512 12.9037 17.4647 12.816 17.6404 12.6405C17.8159 12.4648 17.9036 12.2513 17.9036 12C17.9036 11.7487 17.8159 11.5352 17.6404 11.3595C17.4647 11.184 17.2512 11.0962 16.9999 11.0962C16.7486 11.0962 16.5351 11.184 16.3594 11.3595C16.1839 11.5352 16.0961 11.7487 16.0961 12C16.0961 12.2513 16.1839 12.4648 16.3594 12.6405C16.5351 12.816 16.7486 12.9037 16.9999 12.9037ZM14.9999 9.90375C15.2512 9.90375 15.4647 9.816 15.6404 9.6405C15.8159 9.46483 15.9036 9.25133 15.9036 9C15.9036 8.74867 15.8159 8.53517 15.6404 8.3595C15.4647 8.184 15.2512 8.09625 14.9999 8.09625C14.7486 8.09625 14.5351 8.184 14.3594 8.3595C14.1839 8.53517 14.0961 8.74867 14.0961 9C14.0961 9.25133 14.1839 9.46483 14.3594 9.6405C14.5351 9.816 14.7486 9.90375 14.9999 9.90375ZM7.90364 12.8463H9.09614V11.0962H10.8461V9.90375H9.09614V8.15375H7.90364V9.90375H6.15364V11.0962H7.90364V12.8463Z" fill="#5C5C5C"/>
</g>
</svg>
