<svg width="24" height="24" viewBox="0 0 24 24" fill="none" xmlns="http://www.w3.org/2000/svg">
<mask id="mask0_74_1563" style="mask-type:alpha" maskUnits="userSpaceOnUse" x="0" y="0" width="24" height="24">
<rect width="24" height="24" fill="#D9D9D9"/>
</mask>
<g mask="url(#mask0_74_1563)">
<path d="M10.029 20.4037C9.06655 20.4037 8.24263 20.061 7.5573 19.3757C6.87196 18.6902 6.5293 17.8662 6.5293 16.9037C6.5293 15.9412 6.87196 15.1173 7.5573 14.4319C8.24263 13.7466 9.06655 13.4039 10.029 13.4039C10.4124 13.4039 10.7714 13.4609 11.106 13.5749C11.4407 13.6891 11.7484 13.8603 12.029 14.0884V3.59619H17.4713V6.86519H13.529V16.9037C13.529 17.8662 13.1864 18.6902 12.501 19.3757C11.8155 20.061 10.9915 20.4037 10.029 20.4037Z" fill="#5C5C5C"/>
</g>
</svg>
