<svg width="24" height="24" viewBox="0 0 24 24" fill="none" xmlns="http://www.w3.org/2000/svg">
<mask id="mask0_74_1605" style="mask-type:alpha" maskUnits="userSpaceOnUse" x="0" y="0" width="24" height="24">
<rect width="24" height="24" fill="#D9D9D9"/>
</mask>
<g mask="url(#mask0_74_1605)">
<path d="M18.529 22.7501C18.115 22.7501 17.7103 22.7183 17.3148 22.6548C16.9193 22.5913 16.533 22.4929 16.156 22.3596L2.26953 17.2923L2.66378 16.1656L9.60228 18.7001L11.3753 14.2213L7.56953 10.4193C7.16437 10.0231 7.00278 9.54273 7.08478 8.97806C7.16695 8.41323 7.45928 7.98339 7.96178 7.68856L11.7253 5.48656C11.9701 5.33923 12.2208 5.25464 12.4773 5.23281C12.7336 5.21097 12.9842 5.25197 13.229 5.35581C13.474 5.44297 13.6879 5.58206 13.8705 5.77306C14.0532 5.96422 14.1913 6.19056 14.2848 6.45206L14.6098 7.52706C14.8586 8.34623 15.2336 9.04048 15.7348 9.60981C16.2361 10.179 16.8829 10.6084 17.6753 10.8981L18.21 9.27881L19.3368 9.64231L18.3465 12.6308C17.1004 12.386 16.0551 11.9075 15.2108 11.1953C14.3666 10.4831 13.7291 9.53148 13.2983 8.34031L10.158 10.1751L13.183 13.7116L11.0155 19.2116L14.4908 20.4713L16.6388 14.0078C16.8208 14.0846 17.0028 14.1484 17.1848 14.1991C17.3669 14.2497 17.5605 14.2969 17.7655 14.3406L15.6023 20.8906L16.5023 21.2136C16.8343 21.3264 17.1644 21.412 17.4925 21.4703C17.8207 21.5286 18.1662 21.5578 18.529 21.5578C18.9495 21.5578 19.3509 21.5209 19.733 21.4471C20.115 21.3734 20.4862 21.2596 20.8465 21.1058L21.731 22.0096C21.2362 22.2609 20.7227 22.4471 20.1905 22.5683C19.6585 22.6895 19.1047 22.7501 18.529 22.7501ZM16.3368 6.34631C15.8316 6.34631 15.3976 6.16489 15.0348 5.80206C14.6721 5.43923 14.4908 5.00522 14.4908 4.50006C14.4908 3.99489 14.6721 3.56089 15.0348 3.19806C15.3976 2.83522 15.8316 2.65381 16.3368 2.65381C16.8419 2.65381 17.2759 2.83522 17.6388 3.19806C18.0016 3.56089 18.183 3.99489 18.183 4.50006C18.183 5.00522 18.0016 5.43923 17.6388 5.80206C17.2759 6.16489 16.8419 6.34631 16.3368 6.34631Z" fill="#5C5C5C"/>
</g>
</svg>
