<svg width="24" height="24" viewBox="0 0 24 24" fill="none" xmlns="http://www.w3.org/2000/svg">
<g clip-path="url(#clip0_828_3299)">
<path d="M20.0747 4.78767C20.1298 4.73843 20.1737 4.67799 20.2036 4.61038C20.2334 4.54278 20.2485 4.46956 20.2478 4.39566C20.2471 4.32175 20.2306 4.24886 20.1994 4.18186C20.1682 4.11486 20.123 4.05529 20.0669 4.00715C20.0078 3.95648 19.9492 3.90607 19.891 3.85594C19.4472 3.47428 18.9882 3.07911 18.5082 2.74203C14.8409 0.160906 11.0303 0.146385 7.18308 1.51526C3.69976 2.75374 1.46284 5.2315 0.5335 8.87836C-0.503193 12.9528 0.404619 16.5473 3.2336 19.5633C3.3072 19.6412 3.38232 19.7191 3.45732 19.7935C4.977 21.3133 6.86983 22.2516 8.36959 22.9044C9.01332 23.1856 12.3163 23.5269 13.21 23.3938C18.5209 22.6007 22.0159 19.6052 23.2333 14.5938C23.4656 13.6122 23.5814 12.6066 23.578 11.5978C23.5728 10.5384 23.3946 9.48692 23.0506 8.4849C23.0254 8.40995 22.9842 8.34145 22.9296 8.28433C22.8749 8.22721 22.8085 8.18287 22.7346 8.15446C22.6609 8.12607 22.5817 8.11434 22.5029 8.12009C22.4242 8.12585 22.3475 8.14896 22.2788 8.18777L22.2644 8.19598C22.1549 8.25862 22.0709 8.35774 22.0273 8.47599C21.9836 8.59424 21.9829 8.72408 22.0252 8.84281C22.3358 9.70409 22.4942 10.6128 22.4932 11.5284C22.4825 12.6268 22.3338 13.7194 22.0506 14.7808C21.2115 17.8306 19.2053 20.0534 15.9176 21.5739C12.5751 23.1741 7.78184 21.5563 6.50651 20.7143C5.09689 19.7506 3.86346 18.5517 2.86016 17.1701C1.28669 14.9421 0.933679 11.7401 1.7792 8.81267C2.17488 7.46105 2.86637 6.2144 3.80357 5.16316C4.74077 4.11192 5.90017 3.28242 7.19769 2.73481C10.5733 1.33199 13.9602 1.08453 17.2637 3.18546C17.7066 3.46746 18.836 4.35425 19.4068 4.8071C19.5025 4.88307 19.6221 4.92272 19.7442 4.91907C19.8665 4.9154 19.9834 4.86864 20.0744 4.78707L20.0747 4.78767Z" fill="#FFA175"/>
<path d="M10.5358 15.2206C10.762 15.0056 10.8863 14.8968 11.0001 14.7779C14.6475 10.9673 18.6419 7.53669 22.6599 4.13259C22.8118 4.004 22.9673 3.83997 23.147 3.7939C23.3637 3.73853 23.7171 3.80222 23.8139 3.91989C23.8776 4.00685 23.9178 4.1087 23.9307 4.21567C23.9436 4.32264 23.9288 4.43115 23.8879 4.53077C23.7934 4.77843 23.5633 4.99053 23.3547 5.17591C22.1092 6.28259 20.8289 7.35114 19.6054 8.48067C17.0479 10.8427 14.5067 13.2222 11.9817 15.6193C10.8753 16.6674 10.4495 16.7099 9.4314 15.5899C8.76123 14.8524 6.73872 12.3666 6.11934 11.5834C6.03183 11.4617 5.95388 11.3333 5.8862 11.1996C5.74649 10.9518 5.65517 10.6788 5.93286 10.4868C6.24221 10.2728 6.46172 10.4961 6.6451 10.7285C6.83066 10.9638 6.98889 11.2223 7.18757 11.4453C7.80437 12.1374 9.86934 14.4906 10.5358 15.2206Z" fill="#FFA175"/>
</g>
<defs>
<clipPath id="clip0_828_3299">
<rect width="24" height="24" fill="white"/>
</clipPath>
</defs>
</svg>
